<svg width="113" height="113" viewBox="0 0 113 113" fill="none" xmlns="http://www.w3.org/2000/svg">
<circle cx="56.6967" cy="57.1899" r="20.3754" fill="#FF728D"/>
<path d="M-7.90055e-05 56.746C-7.62894e-05 25.6778 25.1857 0.492096 56.2539 0.492099C87.3221 0.492101 112.508 25.6779 112.508 56.7461C112.508 87.8142 87.3221 113 56.2539 113C25.1857 113 -8.17215e-05 87.8142 -7.90055e-05 56.746ZM91.6068 56.746C91.6068 37.2212 75.7787 21.3931 56.2539 21.3931C36.729 21.3931 20.901 37.2212 20.901 56.746C20.901 76.2709 36.729 92.099 56.2539 92.099C75.7787 92.099 91.6068 76.2709 91.6068 56.746Z" fill="#FFD0D9"/>
</svg>
