<svg width="113" height="113" viewBox="0 0 113 113" fill="none" xmlns="http://www.w3.org/2000/svg">
<circle cx="56.6967" cy="56.6997" r="20.3754" fill="#FF728D"/>
<path d="M56.2539 -8.88412e-05C63.6412 -8.81954e-05 70.9563 1.45497 77.7813 4.28199C84.6064 7.10901 90.8078 11.2527 96.0314 16.4763C101.255 21.7 105.399 27.9014 108.226 34.7264C111.053 41.5515 112.508 48.8665 112.508 56.2539L91.6068 56.2539C91.6068 51.6113 90.6924 47.0141 88.9157 42.7249C87.1391 38.4357 84.535 34.5384 81.2522 31.2556C77.9693 27.9728 74.0721 25.3687 69.7828 23.592C65.4936 21.8154 60.8965 20.9009 56.2539 20.9009L56.2539 -8.88412e-05Z" fill="#FFD0D9"/>
</svg>
