<svg width="113" height="114" viewBox="0 0 113 114" fill="none" xmlns="http://www.w3.org/2000/svg">
<circle cx="56.6967" cy="57.2446" r="20.3754" fill="#FF728D"/>
<path d="M56.2539 0.546786C67.3799 0.546787 78.256 3.84603 87.5069 10.0273C96.7578 16.2086 103.968 24.9942 108.226 35.2733C112.483 45.5524 113.597 56.8631 111.427 67.7753C109.256 78.6875 103.899 88.711 96.0314 96.5783C88.1642 104.446 78.1407 109.803 67.2285 111.974C56.3163 114.144 45.0055 113.03 34.7264 108.773C24.4473 104.515 15.6617 97.3047 9.48041 88.0537C3.29915 78.8028 -7.99781e-05 67.9267 -7.90055e-05 56.8007L20.901 56.8007C20.901 63.7929 22.9744 70.628 26.859 76.4418C30.7436 82.2555 36.265 86.7868 42.7249 89.4626C49.1848 92.1383 56.2931 92.8385 63.1509 91.4744C70.0087 90.1103 76.308 86.7432 81.2522 81.799C86.1963 76.8548 89.5634 70.5555 90.9275 63.6978C92.2916 56.84 91.5915 49.7317 88.9157 43.2718C86.2399 36.8119 81.7087 31.2905 75.8949 27.4059C70.0811 23.5212 63.246 21.4478 56.2539 21.4478L56.2539 0.546786Z" fill="#FFD0D9"/>
</svg>
