<svg width="112" height="113" viewBox="0 0 112 113" fill="none" xmlns="http://www.w3.org/2000/svg">
<circle cx="56.2627" cy="56.9087" r="20.2192" fill="#9747FF"/>
<path d="M55.8229 0.643725C64.6323 0.643726 73.3166 2.72865 81.1658 6.72803C89.015 10.7274 95.8063 16.5277 100.984 23.6547C106.162 30.7816 109.58 39.0329 110.958 47.7338C112.336 56.4348 111.636 65.3383 108.913 73.7166C106.191 82.0948 101.525 89.7098 95.2954 95.939C89.0662 102.168 81.4512 106.835 73.073 109.557C64.6947 112.279 55.7912 112.98 47.0902 111.602C38.3893 110.224 30.138 106.806 23.0111 101.628L35.2022 84.8482C39.6812 88.1024 44.8667 90.2503 50.3348 91.1163C55.8029 91.9824 61.3984 91.542 66.6637 89.8312C71.9291 88.1204 76.7147 85.1878 80.6295 81.273C84.5442 77.3583 87.4769 72.5726 89.1877 67.3073C90.8985 62.042 91.3389 56.4465 90.4728 50.9784C89.6067 45.5103 87.4588 40.3247 84.2047 35.8458C80.9505 31.3668 76.6826 27.7216 71.7497 25.2082C66.8168 22.6948 61.3591 21.3845 55.8228 21.3845L55.8229 0.643725Z" fill="#CDCBFF"/>
</svg>
