<svg width="112" height="113" viewBox="0 0 112 113" fill="none" xmlns="http://www.w3.org/2000/svg">
<circle cx="56.2627" cy="56.9087" r="20.2192" fill="#9747FF"/>
<path d="M55.8229 0.643725C67.6114 0.643726 79.0974 4.37575 88.6346 11.3049C98.1718 18.2341 105.27 28.0046 108.913 39.2162C112.556 50.4279 112.556 62.5049 108.913 73.7166C105.27 84.9282 98.1717 94.6987 88.6346 101.628C79.0974 108.557 67.6114 112.289 55.8228 112.289C44.0342 112.289 32.5483 108.557 23.0111 101.628C13.4739 94.6987 6.3752 84.9281 2.73233 73.7165C-0.910541 62.5049 -0.910532 50.4278 2.73234 39.2162L22.458 45.6255C20.1686 52.6714 20.1686 60.2613 22.458 67.3073C24.7474 74.3532 29.2086 80.4936 35.2022 84.8482C41.1959 89.2029 48.4143 91.5483 55.8228 91.5483C63.2314 91.5483 70.4498 89.2029 76.4434 84.8482C82.4371 80.4936 86.8983 74.3533 89.1877 67.3073C91.4771 60.2613 91.4771 52.6715 89.1877 45.6255C86.8983 38.5795 82.4371 32.4392 76.4435 28.0846C70.4498 23.7299 63.2314 21.3845 55.8228 21.3845L55.8229 0.643725Z" fill="#CDCBFF"/>
</svg>
