<svg width="112" height="112" viewBox="0 0 112 112" fill="none" xmlns="http://www.w3.org/2000/svg">
<circle cx="56.2622" cy="56.2661" r="20.2192" fill="white"/>
<path d="M55.8229 -0.000805967C66.8635 -0.000805001 77.6563 3.27314 86.8363 9.40701C96.0163 15.5409 103.171 24.2592 107.396 34.4595C111.621 44.6597 112.727 55.8838 110.573 66.7123C108.419 77.5409 103.102 87.4875 95.2954 95.2945C87.4885 103.101 77.5418 108.418 66.7133 110.572C55.8848 112.726 44.6607 111.62 34.4604 107.395C24.2602 103.17 15.5419 96.0153 9.40799 86.8353C3.27412 77.6553 0.000179391 66.8625 0.000180356 55.8218L20.741 55.8218C20.741 62.7604 22.7985 69.5431 26.6533 75.3123C30.5082 81.0815 35.9872 85.578 42.3976 88.2333C48.808 90.8885 55.8618 91.5833 62.667 90.2296C69.4722 88.876 75.7232 85.5348 80.6295 80.6285C85.5358 75.7222 88.877 69.4712 90.2306 62.666C91.5843 55.8608 90.8895 48.807 88.2343 42.3966C85.579 35.9862 81.0825 30.5072 75.3133 26.6523C69.5441 22.7975 62.7614 20.74 55.8228 20.74L55.8229 -0.000805967Z" fill="#0E6BA4"/>
</svg>
