<svg width="56" height="57" viewBox="0 0 56 57" fill="none" xmlns="http://www.w3.org/2000/svg">
<path d="M24.0536 36.8812C25.3686 35.9438 26.9778 35.3923 28.7158 35.3923C33.1562 35.3923 36.7559 38.992 36.7559 43.4325C36.7559 47.873 33.1562 51.4727 28.7158 51.4727C25.8374 51.4727 23.3123 49.9601 21.8919 47.6866M41.3503 9.92302L35.354 9.92302C34.5722 9.92302 33.7951 9.82999 33.0372 9.64393L26.7014 8.10427C25.3266 7.76936 23.8945 7.7368 22.5054 8.00659L15.5001 9.36949C13.6495 9.72998 11.9472 10.6161 10.6131 11.9139L5.65681 16.7352C4.24141 18.1097 4.24141 20.3401 5.65681 21.717C6.93115 22.9566 8.94906 23.0962 10.3908 22.0449L16.1671 17.8306C16.9944 17.2259 18.0009 16.9003 19.0362 16.9003L24.6141 16.9003L21.0637 16.9005C19.0625 16.9005 17.4415 18.4774 17.4415 20.424L17.4415 21.1287C17.4415 22.7451 18.5724 24.1546 20.1838 24.5453L25.6637 25.878C26.5555 26.0942 27.4688 26.2036 28.3869 26.2036C30.6033 26.2036 34.6152 24.3685 34.6152 24.3685L41.3503 21.552M9.18964 41.1353C9.18964 36.6948 12.7893 33.0951 17.2298 33.0951C21.6703 33.0951 25.27 36.6948 25.27 41.1353C25.27 45.5758 21.6703 49.1755 17.2298 49.1755C12.7893 49.1755 9.18964 45.5758 9.18964 41.1353ZM50.5391 22.5281L50.5391 9.20435C50.5391 7.91781 50.5391 7.27453 50.2887 6.78314C50.0684 6.35089 49.717 5.99947 49.2848 5.77923C48.7934 5.52885 48.1501 5.52885 46.8636 5.52885L45.0258 5.52885C43.7393 5.52885 43.096 5.52885 42.6046 5.77923C42.1723 5.99947 41.8209 6.35089 41.6007 6.78313C41.3503 7.27453 41.3503 7.9178 41.3503 9.20435L41.3503 22.5281C41.3503 23.8146 41.3503 24.4579 41.6007 24.9493C41.8209 25.3815 42.1723 25.7329 42.6046 25.9532C43.096 26.2036 43.7393 26.2036 45.0258 26.2036L46.8636 26.2036C48.1501 26.2036 48.7934 26.2036 49.2848 25.9532C49.717 25.7329 50.0684 25.3815 50.2887 24.9493C50.5391 24.4579 50.5391 23.8146 50.5391 22.5281Z" stroke="white" stroke-width="4.59438" stroke-linecap="round" stroke-linejoin="round"/>
</svg>
