<svg width="68" height="69" viewBox="0 0 68 69" fill="none" xmlns="http://www.w3.org/2000/svg">
<path d="M47.6477 41.5074V33.0833C47.6477 32.5802 47.6477 32.3287 47.5711 32.1067C47.5034 31.9103 47.3928 31.7314 47.2475 31.583C47.0831 31.4152 46.8582 31.3027 46.4082 31.0778L33.6336 24.6905M11.2111 27.4933V46.571C11.2111 47.6134 11.2111 48.1346 11.3737 48.5909C11.5175 48.9943 11.7518 49.3595 12.0586 49.6582C12.4057 49.9962 12.8795 50.2134 13.8271 50.6477L31.7651 58.8693C32.4525 59.1843 32.7962 59.3418 33.1542 59.404C33.4714 59.4591 33.7958 59.4591 34.1131 59.404C34.4711 59.3418 34.8148 59.1843 35.5021 58.8693L53.4402 50.6477C54.3877 50.2134 54.8616 49.9962 55.2086 49.6582C55.5155 49.3595 55.7498 48.9943 55.8936 48.5909C56.0562 48.1346 56.0562 47.6134 56.0562 46.571V27.4933M5.60547 24.6905L32.6309 11.1778C32.9985 10.9939 33.1824 10.902 33.3752 10.8658C33.546 10.8338 33.7213 10.8338 33.8921 10.8658C34.0849 10.902 34.2687 10.9939 34.6364 11.1778L61.6618 24.6905L34.6364 38.2032C34.2687 38.387 34.0849 38.4789 33.8921 38.5151C33.7213 38.5471 33.546 38.5471 33.3752 38.5151C33.1824 38.4789 32.9985 38.387 32.6309 38.2032L5.60547 24.6905Z" stroke="white" stroke-width="5.60563" stroke-linecap="round" stroke-linejoin="round"/>
</svg>
