<svg width="64" height="65" viewBox="0 0 64 65" fill="none" xmlns="http://www.w3.org/2000/svg">
<path d="M31.7009 6.08203C38.3087 13.3161 42.0639 22.7041 42.268 32.4997C42.0639 42.2953 38.3087 51.6833 31.7009 58.9174M31.7009 6.08203C25.0931 13.3161 21.3379 22.7041 21.1338 32.4997C21.3379 42.2953 25.0931 51.6833 31.7009 58.9174M31.7009 6.08203C17.1108 6.08203 5.2832 17.9096 5.2832 32.4997C5.2832 47.0898 17.1108 58.9174 31.7009 58.9174M31.7009 6.08203C46.291 6.08203 58.1186 17.9096 58.1186 32.4997C58.1186 47.0898 46.291 58.9174 31.7009 58.9174M6.60414 24.5744H56.7977M6.60409 40.425H56.7977" stroke="white" stroke-width="5.28354" stroke-linecap="round" stroke-linejoin="round"/>
</svg>
